<?xml version="1.0" encoding="utf-8"?>
<svg version="1.1" id="Layer_1" xmlns="http://www.w3.org/2000/svg" xmlns:xlink="http://www.w3.org/1999/xlink" x="0px" y="0px"
	 viewBox="0 0 83.6 94.4" style="enable-background:new 0 0 83.6 94.4;" xml:space="preserve">
<path d="M80.1,21L45.5,1c-2.2-1.3-5-1.3-7.2,0L3.6,21C1.4,22.3,0,24.7,0,27.2v40c0,2.6,1.4,5,3.6,6.2l34.6,20c1.1,0.6,2.3,1,3.6,1
	s2.5-0.3,3.6-1l34.6-20c2.2-1.3,3.6-3.7,3.6-6.2v-40C83.7,24.6,82.4,22.3,80.1,21z M58.8,49c-2.5,4.6-15.5,17-16.7,18L42,66.9
	C40.5,65.4,28,53.5,25.5,49c0,0-6.6-8.1,0-14.1c0,0,9.6-8.1,16.7,2.9c7.1-11,16.7-2.9,16.7-2.9C65.5,41,58.8,49,58.8,49z"/>
</svg>
