<svg xmlns="http://www.w3.org/2000/svg" xmlns:xlink="http://www.w3.org/1999/xlink" version="1.1" x="0px" y="0px" viewBox="0 0 100 125" style="enable-background:new 0 0 100 100;" xml:space="preserve"><path d="M87.6,24L53,4c-2.2-1.3-5-1.3-7.2,0L11.1,24c-2.2,1.3-3.6,3.7-3.6,6.2v40c0,2.6,1.4,5,3.6,6.2l34.6,20c1.1,0.6,2.3,1,3.6,1  s2.5-0.3,3.6-1l34.6-20c2.2-1.3,3.6-3.7,3.6-6.2v-40C91.2,27.6,89.9,25.3,87.6,24z M66.3,52C63.8,56.6,50.8,69,49.6,70l-0.1-0.1  C48,68.4,35.5,56.5,33,52c0,0-6.6-8.1,0-14.1c0,0,9.6-8.1,16.7,2.9c7.1-11,16.7-2.9,16.7-2.9C73,44,66.3,52,66.3,52z"/><text x="0" y="115" fill="#000000" font-size="5px" font-weight="bold" font-family="'Helvetica Neue', Helvetica, Arial-Unicode, Arial, Sans-serif">Created by Aneeque Ahmed</text><text x="0" y="120" fill="#000000" font-size="5px" font-weight="bold" font-family="'Helvetica Neue', Helvetica, Arial-Unicode, Arial, Sans-serif">from the Noun Project</text></svg>