<?xml version="1.0" encoding="utf-8"?>
<!-- Generator: Adobe Illustrator 21.1.0, SVG Export Plug-In . SVG Version: 6.00 Build 0)  -->
<svg version="1.1" id="Layer_1" xmlns="http://www.w3.org/2000/svg" xmlns:xlink="http://www.w3.org/1999/xlink" x="0px" y="0px"
	 viewBox="0 0 3147.3 1200" style="enable-background:new 0 0 3147.3 1200;" xml:space="preserve">
<style type="text/css">
	.st0{fill:#777777;}
</style>
<g>
	<path class="st0" d="M2938.8,994.5h172c20.2,0,36.6-16.4,36.6-36.6c0-2.9-2.2-180.9-115.4-311.5c-18.5-49.4-146-354-480.2-368.4
		c-15-64.2-61.4-211.1-180.8-273.7c-17.9-9.4-40-2.5-49.4,15.4c-9.4,17.9-2.5,40,15.4,49.4c84.1,44.1,123.2,149.5,139.2,208.5
		h-899.7c-4.6,0.1-377.5,12.7-460.1,391.6c-26.2,35.1-45.3,72.5-59.3,108.4c-96.7-36.5-188.1-18.3-272,54.9
		c-31.5,27.5-89.8,20.5-117.8,13.6l-12-12c-14.3-14.3-37.4-14.3-51.7,0l-59,59c-14.3,14.3-14.3,37.4,0,51.7l42.7,42.7
		c6.8,6.9,16.1,10.7,25.9,10.7c9.7,0,19-3.8,25.9-10.7l59-59c1.1-1.1,1.6-2.6,2.6-3.9c5.6,0.4,11.3,0.6,17.3,0.6
		c37.5,0,81.2-8,115.2-37.7c64.2-56.1,129-68.9,201.9-40.1c-3.4,13.7-6.1,26.8-8.2,38.6c-38.3-1.7-97.2,5.7-151.3,54.1
		c-2.1-1.4-4-3.1-6.3-4.1c-9-3.6-19.1-3.4-28,0.4l-76.7,33c-18.5,8-27.1,29.5-19.1,48l23.8,55.5c3.8,8.9,11,15.9,20,19.5
		c4.4,1.8,9,2.6,13.5,2.6c4.9,0,9.9-1,14.5-3l76.7-33c8.9-3.8,15.9-11,19.5-20c3.6-9,3.4-19.1-0.4-28l-1.5-3.6
		c37.9-41.3,80.5-48.8,107.7-48.5c0.5,19.8,16.5,35.7,36.4,35.7h172c17.7,116.1,118,205.5,239,205.5s221.3-89.4,239-205.5h755
		c17.7,116.1,118,205.5,239,205.5C2820.8,1200,2921.1,1110.6,2938.8,994.5z M2530.8,957.9c0-93.2,75.8-168.9,168.9-168.9
		c93.2,0,168.9,75.8,168.9,168.9c0,93.1-75.8,168.9-168.9,168.9C2606.6,1126.8,2530.8,1051.1,2530.8,957.9z M1297.8,957.9
		c0-93.2,75.8-168.9,168.9-168.9c93.2,0,168.9,75.8,168.9,168.9c0,93.1-75.8,168.9-168.9,168.9
		C1373.6,1126.8,1297.8,1051.1,1297.8,957.9z M1094.9,921.4c10.9-94.7,68.5-337.9,371.9-337.9c303.6,0,361,243.2,371.9,337.9h-132.8
		c-17.7-116.2-118-205.5-239-205.5s-221.3,89.4-239,205.5H1094.9z M2897.3,547.9c-53.6-23.3-118.5-37.6-197.6-37.6
		c-366.8,0-433,304.3-444.9,411h-343.2c-11.9-106.7-78.1-411-444.9-411c-99.2,0-176.3,22.4-236.4,57
		c110.2-208.2,344-216.7,346.8-216.7h944.5c0,0,0.1,0,0.1,0c0.1,0,0.1,0,0.2,0c1.6,0,3.3,0,4.9,0
		C2717.8,350.6,2833.1,456.7,2897.3,547.9z M3071.6,921.4h-132.8c-17.7-116.2-118-205.5-239-205.5s-221.3,89.4-239,205.5h-132.8
		c10.9-94.6,68.3-337.9,371.8-337.9C3003.1,583.5,3060.7,826.6,3071.6,921.4z"/>
	<path class="st0" d="M2632.3,957.9c0,37.2,30.2,67.4,67.4,67.4c37.2,0,67.4-30.2,67.4-67.4c0-37.2-30.2-67.4-67.4-67.4
		C2662.6,890.5,2632.3,920.8,2632.3,957.9z M2694,957.9c0-3.2,2.6-5.7,5.7-5.7c3.2,0,5.7,2.6,5.7,5.7
		C2705.5,964.3,2694,964.3,2694,957.9z"/>
	<path class="st0" d="M1399.3,957.9c0,37.2,30.2,67.4,67.4,67.4s67.4-30.2,67.4-67.4c0-37.2-30.2-67.4-67.4-67.4
		S1399.3,920.8,1399.3,957.9z M1461,957.9c0-3.2,2.6-5.7,5.7-5.7s5.7,2.6,5.7,5.7C1472.5,964.3,1461,964.3,1461,957.9z"/>
	<path class="st0" d="M3,1095.4l23.8,55.4c3.8,8.9,11,15.9,20,19.5c4.4,1.8,9,2.6,13.5,2.6c4.9,0,9.8-1,14.4-3l76.7-33
		c8.9-3.8,15.9-11,19.5-20.1c0.7-1.8,0.6-3.7,1-5.5c2.4-1.1,5-1.9,7.2-3.6c25.6-20.2,159.6-38.7,228.8-1.2
		c30.2,16.4,63.3,22.1,94.6,22.1c69.4,0,130.4-28,134.1-29.7c18.3-8.6,26.2-30.3,17.6-48.6c-8.6-18.3-30.3-26.2-48.6-17.7
		c-1.4,0.6-98.5,44.6-163,9.6c-86-46.6-230.7-33.9-293.1-1.6l-3-7.1c-3.8-8.9-11-15.9-20.1-19.5c-9-3.6-19.1-3.4-28,0.4l-76.7,33
		C3.5,1055.4-5,1076.9,3,1095.4z"/>
	<path class="st0" d="M735.4,791.9c12-16.2,8.5-39.1-7.7-51.1c-6.3-4.6-156.3-113.4-283.8-40.1c-76.3,43.9-127,91.7-157.3,120.3
		c-1.2,1.2-2.5,2.3-3.7,3.5c-6.3-7.5-15.4-12.7-26-13.3l-83.3-4.5c-20.6-1.2-37.4,14.4-38.5,34.5l-3.3,60.3
		c-0.5,9.7,2.8,19.2,9.3,26.4c6.5,7.2,15.6,11.6,25.3,12.1l83.4,4.5c0.6,0,1.3,0,1.9,0c9,0,17.7-3.3,24.4-9.4
		c7.2-6.5,11.6-15.6,12.1-25.3l0-1.1c2.4-0.5,4.8-0.5,7.1-1.5c12.1-5.5,23.2-15.9,41.4-33.2c29.8-28.1,74.8-70.5,143.6-110.1
		c85.3-49.1,202.7,34.6,203.9,35.5C700.5,811.6,723.4,808.2,735.4,791.9z"/>
	<path class="st0" d="M2204.9,633.8c39.1-39.1,39.1-102.7,0-141.8c-36.8-36.8-100.3-38.1-138.5-3.2c-38.3-34.9-101.8-33.5-138.5,3.2
		c-39.1,39.1-39.1,102.7,0,141.8l112.7,112.7c7.1,7.1,16.5,10.7,25.9,10.7s18.7-3.6,25.9-10.7L2204.9,633.8z M2153.2,582.1
		l-86.8,86.8l-86.8-86.8c-10.6-10.6-10.6-27.8,0-38.4c10.2-10.3,28.1-10.3,38.4,0l22.5,22.5c13.7,13.7,38,13.7,51.8,0l22.5-22.5
		c5.1-5.1,11.9-7.9,19.2-7.9c7.2,0,14.1,2.8,19.2,7.9C2163.7,554.3,2163.7,571.5,2153.2,582.1z"/>
</g>
</svg>
